<svg width="36" height="36" viewBox="0 0 36 36" fill="none" xmlns="http://www.w3.org/2000/svg">
<circle cx="18" cy="18" r="18" fill="#D9D9D9"/>
<circle cx="18" cy="18" r="18" fill="#00B0F0"/>
<mask id="mask0_259_675" style="mask-type:alpha" maskUnits="userSpaceOnUse" x="0" y="0" width="36" height="36">
<circle cx="18" cy="18" r="18" fill="#D9D9D9"/>
</mask>
<g mask="url(#mask0_259_675)">
<path d="M18.0001 21.6667C22.0434 21.6667 25.3334 18.3767 25.3334 14.3334V13.0001C25.3334 8.95675 22.0434 5.66675 18.0001 5.66675C13.9567 5.66675 10.6667 8.95675 10.6667 13.0001V14.3334C10.6667 18.3767 13.9567 21.6667 18.0001 21.6667Z" fill="white"/>
<path d="M28.1853 25.7902C25.9507 25.1255 22.3693 24.3335 18 24.3335C13.6307 24.3335 10.0493 25.1255 7.81467 25.7902C5.53333 26.4688 4 28.5242 4 30.9042V35.6668C4 36.0348 4.29867 36.3335 4.66667 36.3335H31.3333C31.7013 36.3335 32 36.0348 32 35.6668V30.9042C32 28.5242 30.4667 26.4688 28.1853 25.7902Z" fill="white"/>
</g>
<circle cx="18" cy="18" r="17.5" stroke="#00B0F0"/>
</svg>
