<svg width="44" height="44" viewBox="0 0 44 44" fill="none" xmlns="http://www.w3.org/2000/svg">
<path d="M9.53993 24.8428L3.50437 37.5168C3.39781 37.7423 3.4205 38.0077 3.56556 38.2105C3.70925 38.4133 3.94918 38.5233 4.2015 38.4951L9.95931 37.8558L13.1679 42.9886C13.293 43.1908 13.5137 43.3125 13.7502 43.3125C13.7612 43.3125 13.7715 43.3125 13.7832 43.3118C14.0314 43.3001 14.2541 43.1543 14.3655 42.9323L20.4031 30.857C15.9997 30.4136 12.1277 28.1531 9.53993 24.8428Z" fill="#00B0F0"/>
<path d="M34.4604 24.8428L40.4959 37.5175C40.6025 37.743 40.5798 38.0084 40.4347 38.2112C40.291 38.414 40.0511 38.524 39.7988 38.4958L34.041 37.8565L30.8324 42.9893C30.7073 43.1908 30.4866 43.3125 30.2501 43.3125C30.2391 43.3125 30.2288 43.3125 30.2171 43.3118C29.9689 43.3001 29.7462 43.1543 29.6348 42.9323L23.5972 30.857C28.0006 30.4136 31.8726 28.1531 34.4604 24.8428Z" fill="#00B0F0"/>
<path d="M22 0.6875C14.0394 0.6875 7.5625 7.16375 7.5625 15.125C7.5625 23.0863 14.0394 29.5625 22 29.5625C29.9606 29.5625 36.4375 23.0863 36.4375 15.125C36.4375 7.16375 29.9606 0.6875 22 0.6875ZM29.3507 14.113L26.1491 17.1875L26.8661 21.5683C26.9087 21.8267 26.8001 22.0866 26.5877 22.2386C26.4681 22.3238 26.3285 22.3671 26.1876 22.3671C26.0762 22.3671 25.9648 22.3403 25.8631 22.2853L21.9498 20.1898L18.0056 22.2255C17.7739 22.3458 17.4921 22.3231 17.2817 22.1677C17.0706 22.0124 16.9668 21.7511 17.0129 21.4933L17.7966 17.1236L14.6417 14.0009C14.4554 13.8167 14.3901 13.5431 14.4732 13.2949C14.5557 13.0467 14.7723 12.8666 15.0315 12.8315L19.4288 12.2272L21.4232 8.261C21.5407 8.02656 21.7683 7.86569 22.0426 7.88219C22.3046 7.88425 22.5424 8.03481 22.6566 8.26994L24.5905 12.2657L28.9788 12.9374C29.2373 12.9766 29.4518 13.1601 29.5302 13.4097C29.6092 13.6592 29.5398 13.9322 29.3507 14.113Z" fill="#00B0F0"/>
</svg>
