<svg width="23" height="19" viewBox="0 0 23 19" fill="none" xmlns="http://www.w3.org/2000/svg">
<path d="M22.1428 2.58172C21.3396 2.93748 20.4757 3.17485 19.5645 3.28716C20.4909 2.73713 21.2036 1.85989 21.5381 0.82358C20.6712 1.33172 19.7108 1.70508 18.689 1.90178C17.8731 1.03667 16.7093 0.5 15.4198 0.5C12.9429 0.5 10.9353 2.49005 10.9353 4.94392C10.9353 5.29117 10.9759 5.62932 11.0524 5.95776C7.32609 5.77078 4.02108 3.99928 1.81005 1.31108C1.42151 1.96795 1.20296 2.73714 1.20296 3.54882C1.20296 5.09144 1.99279 6.4495 3.19726 7.24965C2.46207 7.22719 1.76998 7.0226 1.16411 6.69477C1.16411 6.70813 1.16411 6.72816 1.16411 6.74698C1.16411 8.90277 2.71037 10.6979 4.75991 11.1065C4.38534 11.2091 3.98951 11.2662 3.58155 11.2662C3.29197 11.2662 3.00967 11.2334 2.73648 11.1842C3.30714 12.946 4.96268 14.2336 6.9242 14.2719C5.38947 15.4618 3.45649 16.1745 1.35473 16.1745C0.991693 16.1745 0.636544 16.1539 0.285645 16.1114C2.27144 17.3687 4.62939 18.1057 7.16036 18.1057C15.4077 18.1057 19.9196 11.333 19.9196 5.45752C19.9196 5.26507 19.9135 5.07323 19.9044 4.88381C20.7847 4.26215 21.5436 3.47779 22.1428 2.58172Z" fill="#03A9F4"/>
</svg>
