<?xml version="1.0" encoding="UTF-8"?>
<svg width="194px" height="194px" viewBox="0 0 194 194" version="1.1" xmlns="http://www.w3.org/2000/svg" xmlns:xlink="http://www.w3.org/1999/xlink">
    <title>Swell Network - Logo Mark</title>
    <g id="Page-1" stroke="none" stroke-width="1" fill="none" fill-rule="evenodd">
        <path d="M185.846058,117.547674 L185.601051,117.804994 C185.486352,117.923282 185.370484,118.040859 185.253445,118.15771 L118.06693,185.23619 C106.36303,196.92127 87.3872582,196.92127 75.6833579,185.23619 L57.1198577,166.703605 C55.8096847,165.3944 55.808583,163.270975 57.1175923,161.960607 C57.5046447,161.573153 57.9806949,161.286382 58.5045703,161.126736 C78.3893147,154.988264 94.5463563,147.902559 106.975695,139.869622 C136.578491,120.73768 162.868612,113.297031 185.846058,117.547674 Z M171.760344,62.3683881 C196.566013,70.1850052 193.67108,88.4333513 194,95.6270623 C166.833971,81.3823966 134.152363,86.6036499 95.9554426,111.289874 C67.4852904,129.689801 43.637104,137.275971 24.4108829,134.048383 C5.18466175,130.820794 0.859791716,107.340044 0,101.100469 C21.1261033,111.782263 49.4380978,105.651483 84.9351901,82.7101258 C118.012958,61.3323501 146.954676,54.5517709 171.760344,62.3683881 Z M118.06693,8.76381041 L135.507547,26.1740481 C136.818389,27.4825824 136.820215,29.6060068 135.511653,30.9168216 C135.044489,31.3847897 134.449411,31.7042131 133.801255,31.8350946 C108.560453,36.9193775 88.374358,44.3511386 73.2429709,54.1303778 C47.3164574,70.8863813 25.2229136,78.6745971 6.96228231,77.4950259 C6.96228231,77.4932324 6.96299475,77.4915123 6.96426292,77.4902439 L75.6833579,8.76381041 L75.6833579,8.76381041 C87.3872582,-2.92127014 106.36303,-2.92127014 118.06693,8.76381041 Z" id="Swell-Network---Logo-Mark" fill="#06B2F1" fill-rule="nonzero"></path>
    </g>
</svg>